<svg width="65" height="15" viewBox="0 0 65 15" fill="none" xmlns="http://www.w3.org/2000/svg">
<path d="M7.5 0C7.5 0 7.91382 3.86245 9.52568 5.47432C11.1375 7.08619 15 7.5 15 7.5C15 7.5 11.1375 7.91382 9.52568 9.52568C7.91382 11.1375 7.5 15 7.5 15C7.5 15 7.08619 11.1375 5.47432 9.52568C3.86245 7.91382 0 7.5 0 7.5C0 7.5 3.86245 7.08619 5.47432 5.47432C7.08619 3.86245 7.5 0 7.5 0Z" fill="white"/>
<path d="M32.5 0C32.5 0 32.9138 3.86245 34.5257 5.47432C36.1375 7.08619 40 7.5 40 7.5C40 7.5 36.1375 7.91382 34.5257 9.52568C32.9138 11.1375 32.5 15 32.5 15C32.5 15 32.0862 11.1375 30.4743 9.52568C28.8625 7.91382 25 7.5 25 7.5C25 7.5 28.8625 7.08619 30.4743 5.47432C32.0862 3.86245 32.5 0 32.5 0Z" fill="white"/>
<path d="M57.5 0C57.5 0 57.9138 3.86245 59.5257 5.47432C61.1375 7.08619 65 7.5 65 7.5C65 7.5 61.1375 7.91382 59.5257 9.52568C57.9138 11.1375 57.5 15 57.5 15C57.5 15 57.0862 11.1375 55.4743 9.52568C53.8625 7.91382 50 7.5 50 7.5C50 7.5 53.8625 7.08619 55.4743 5.47432C57.0862 3.86245 57.5 0 57.5 0Z" fill="white"/>
</svg>
