<svg viewBox="0 0 413 120" fill="none" xmlns="http://www.w3.org/2000/svg">
<path fill-rule="evenodd" clip-rule="evenodd" d="M255.451 93.3745C231.526 110.444 196.849 119.552 166.992 119.552C125.128 119.552 87.4394 104.563 58.9263 79.6354C56.6867 77.6747 58.6937 75.0034 61.3817 76.5301C92.1526 93.8603 130.199 104.286 169.501 104.286C196.006 104.286 225.164 98.9777 251.974 87.9621C256.024 86.2967 259.411 90.5294 255.451 93.3745Z" fill="#FF9900"/>
<path fill-rule="evenodd" clip-rule="evenodd" d="M264.582 83.1182C261.618 79.2583 244.913 81.2944 237.415 82.1973C235.13 82.4808 234.782 80.4622 236.839 79.0106C250.144 69.5034 271.976 72.2475 274.521 75.4343C277.067 78.6389 273.859 100.858 261.356 111.463C259.438 113.092 257.607 112.224 258.461 110.064C261.269 102.947 267.564 86.9955 264.582 83.1182Z" fill="#FF9900"/>
<path fill-rule="evenodd" clip-rule="evenodd" d="M238.725 13.396V4.14647C238.725 2.74654 239.803 1.80741 241.098 1.80741H283.111C284.46 1.80741 285.539 2.76404 285.539 4.14647V12.0669C285.521 13.396 284.388 15.1326 282.375 17.8792L260.604 48.5164C268.694 48.3219 277.233 49.5089 284.568 53.5845C286.222 54.5057 286.671 55.8528 286.797 57.1814V67.0514C286.797 68.398 285.287 69.975 283.705 69.16C270.779 62.4799 253.61 61.7533 239.318 69.2309C237.862 70.0108 236.334 68.4513 236.334 67.1047V57.731C236.334 56.2248 236.352 53.6554 237.88 51.3696L263.102 15.7176H241.152C239.803 15.7176 238.725 14.7785 238.725 13.396ZM85.4658 71.1091H72.6835C71.461 71.0208 70.4904 70.1171 70.4004 68.9651V4.30604C70.4004 3.01236 71.4969 1.98449 72.8631 1.98449H84.7823C86.0229 2.03741 87.0117 2.97694 87.1017 4.14606V12.599H87.3355C90.4453 4.4302 96.2881 0.62079 104.162 0.62079C112.162 0.62079 117.16 4.4302 120.756 12.599C123.848 4.4302 130.877 0.62079 138.41 0.62079C143.767 0.62079 149.628 2.80027 153.205 7.69087C157.25 13.1306 156.423 21.0336 156.423 27.962L156.405 68.7705C156.405 70.0642 155.309 71.1095 153.942 71.1095H141.178C139.902 71.0212 138.877 70.0112 138.877 68.7705V34.5004C138.877 31.7714 139.129 24.9667 138.518 22.3802C137.565 18.0387 134.707 16.8159 131.003 16.8159C127.911 16.8159 124.675 18.8537 123.362 22.1144C122.05 25.375 122.176 30.8323 122.176 34.5004V68.7701C122.176 70.0638 121.079 71.1091 119.713 71.1091H106.949C105.654 71.0208 104.648 70.0108 104.648 68.7701L104.63 34.5004C104.63 27.2883 105.834 16.6746 96.7556 16.6746C87.5692 16.6746 87.9285 27.0225 87.9285 34.5004V68.7701C87.9285 70.0638 86.832 71.1091 85.4658 71.1091ZM321.71 0.620383C340.676 0.620383 350.941 16.6742 350.941 37.0874C350.941 56.8094 339.597 72.4561 321.709 72.4561C303.085 72.4561 292.945 56.4019 292.945 36.3962C292.945 16.2667 303.211 0.620383 321.71 0.620383ZM321.817 13.8214C312.397 13.8214 311.804 26.4733 311.804 34.3584C311.804 42.2617 311.678 59.1305 321.71 59.1305C331.615 59.1305 332.083 45.522 332.083 37.2291C332.083 31.7714 331.849 25.2505 330.177 20.0765C328.739 15.5755 325.881 13.8214 321.818 13.8214M375.535 71.1091H362.806C361.53 71.0208 360.505 70.0108 360.505 68.7701L360.487 4.09314C360.595 2.90611 361.656 1.98449 362.95 1.98449H374.797C375.912 2.03741 376.829 2.78236 377.081 3.79191V13.6798H377.314C380.892 4.83768 385.908 0.620383 394.735 0.620383C400.47 0.620383 406.061 2.65779 409.656 8.23961C413 13.4135 413 22.1144 413 28.3695V69.0713C412.856 70.2054 411.796 71.1091 410.537 71.1091H397.719C396.55 71.0208 395.58 70.17 395.454 69.0713V33.9509C395.454 26.8808 396.281 16.5321 387.454 16.5321C384.344 16.5321 381.485 18.5879 380.065 21.7065C378.267 25.6584 378.033 29.5919 378.033 33.9513V68.7701C378.016 70.0638 376.901 71.1091 375.535 71.1091ZM205.232 40.2239C205.232 45.132 205.358 49.2256 202.841 53.5841C200.81 57.1285 197.574 59.3076 193.996 59.3076C189.089 59.3076 186.212 55.6224 186.212 50.1822C186.212 39.444 195.974 37.4949 205.232 37.4949V40.2239ZM218.122 70.9321C217.278 71.6762 216.055 71.7295 215.102 71.2333C210.86 67.7601 210.086 66.1477 207.767 62.8341C200.756 69.8867 195.776 71.9953 186.697 71.9953C175.929 71.9953 167.569 65.4565 167.569 52.3621C167.569 42.1376 173.178 35.1737 181.196 31.7714C188.136 28.7591 197.826 28.2274 205.233 27.3945V25.7646C205.233 22.7698 205.466 19.2258 203.668 16.6388C202.123 14.3177 199.138 13.3606 196.495 13.3606C191.623 13.3606 187.291 15.8234 186.23 20.9269C186.014 22.061 185.169 23.1772 184.001 23.2306L171.614 21.9194C170.572 21.689 169.403 20.8561 169.709 19.2791C172.549 4.46562 186.14 0 198.294 0C204.514 0 212.64 1.63034 217.548 6.27303C223.768 11.9965 223.174 19.6332 223.174 27.9441V47.5773C223.174 53.4783 225.656 56.0648 227.993 59.2547C228.802 60.3888 228.981 61.7533 227.939 62.6037C225.332 64.7478 220.694 68.7347 218.141 70.9675L218.123 70.9321M37.6631 40.2239C37.6631 45.132 37.7891 49.2256 35.2719 53.5841C33.2407 57.1285 30.0226 59.3076 26.427 59.3076C21.5194 59.3076 18.6606 55.6224 18.6606 50.1822C18.6606 39.444 28.4227 37.4949 37.6631 37.4949V40.2239ZM50.5528 70.9321C49.7083 71.6762 48.4858 71.7295 47.533 71.2333C43.2902 67.7601 42.5349 66.1477 40.1981 62.8341C33.1866 69.8867 28.2252 71.9953 19.1281 71.9953C8.3777 71.9953 0 65.4565 0 52.3621C0 42.1376 5.62712 35.1737 13.6269 31.7714C20.5666 28.7591 30.2564 28.2274 37.6631 27.3945V25.7646C37.6631 22.7698 37.8969 19.2258 36.1168 16.6388C34.5528 14.3177 31.5689 13.3606 28.9439 13.3606C24.0721 13.3606 19.7216 15.8234 18.6606 20.9269C18.445 22.061 17.6 23.1772 16.4494 23.2306L4.04492 21.9194C3.0021 21.689 1.85189 20.8561 2.13934 19.2791C4.99771 4.46562 18.571 0 30.7239 0C36.9437 0 45.0699 1.63034 49.978 6.27303C56.1977 11.9965 55.6047 19.6332 55.6047 27.9441V47.5773C55.6047 53.4783 58.0856 56.0648 60.4227 59.2547C61.25 60.3888 61.4296 61.7533 60.3868 62.6037C57.7799 64.7478 53.1419 68.7347 50.5892 70.9675L50.5533 70.9321" fill="black"/>
</svg>
