<svg width="149" height="177" viewBox="0 0 149 177" fill="none" xmlns="http://www.w3.org/2000/svg">
<path d="M145.877 137.937C143.202 144.121 140.036 149.813 136.367 155.046C131.366 162.181 127.271 167.119 124.116 169.861C119.224 174.363 113.983 176.668 108.371 176.799C104.342 176.799 99.4825 175.652 93.8266 173.325C88.152 171.009 82.9371 169.861 78.1688 169.861C73.1679 169.861 67.8044 171.009 62.0677 173.325C56.3222 175.652 51.6936 176.865 48.1547 176.985C42.7728 177.214 37.4084 174.843 32.0538 169.861C28.636 166.879 24.3614 161.765 19.2402 154.522C13.7458 146.786 9.22876 137.816 5.68986 127.59C1.8999 116.545 0 105.848 0 95.4931C0 83.6312 2.56161 73.4004 7.69242 64.8271C11.7248 57.9408 17.0893 52.5085 23.8033 48.5208C30.5173 44.5329 37.7719 42.5007 45.5845 42.3708C49.8593 42.3708 55.465 43.6938 62.4313 46.2941C69.378 48.9032 73.8383 50.2262 75.7939 50.2262C77.2559 50.2262 82.2111 48.6791 90.6109 45.5949C98.5546 42.7346 105.259 41.5501 110.751 42.0167C125.634 43.2185 136.814 49.0888 144.25 59.6649C130.94 67.7345 124.356 79.0369 124.487 93.5363C124.607 104.83 128.702 114.228 136.749 121.691C140.396 125.154 144.469 127.831 149 129.732C148.017 132.583 146.98 135.315 145.877 137.937V137.937ZM111.745 3.54105C111.745 12.393 108.513 20.6581 102.07 28.3083C94.2961 37.4028 84.8928 42.6579 74.6955 41.8287C74.5589 40.7158 74.4903 39.5957 74.4902 38.4745C74.4902 29.9766 78.1873 20.8821 84.753 13.4462C88.0308 9.6812 92.1997 6.55074 97.2551 4.05347C102.3 1.59348 107.071 0.233029 111.559 0C111.69 1.18333 111.745 2.36681 111.745 3.5409V3.54105Z" fill="#010302"/>
</svg>
