<svg width="219" height="216" viewBox="0 0 219 216" fill="none" xmlns="http://www.w3.org/2000/svg">
<path d="M142.68 107.841C142.68 88.5983 127.826 73 109.499 73C91.1724 73 76.3164 88.5983 76.3164 107.841C76.3164 127.083 91.1724 142.682 109.499 142.682C127.826 142.682 142.68 127.083 142.68 107.841Z" fill="#ED1C24"/>
<path d="M109.505 0C99.0723 0 88.9948 1.46738 79.436 4.15116V62.4427C88.081 56.8786 98.4035 53.6322 109.503 53.6322C139.901 53.6322 164.546 77.9021 164.546 107.84C164.546 137.779 139.901 162.049 109.503 162.049C79.1025 162.049 54.4571 137.779 54.4571 107.84C54.4571 106.878 54.485 105.921 54.5343 104.97L54.4574 105.03V14.6318C21.8984 33.3209 0 68.0515 0 107.84C0 167.399 49.0278 215.682 109.505 215.682C169.981 215.682 219 167.399 219 107.84C219 48.283 169.981 0 109.505 0Z" fill="#ED1C24"/>
</svg>
