<svg width="122" height="19" viewBox="0 0 122 19" fill="none" xmlns="http://www.w3.org/2000/svg">
<path d="M1.88636 15H0.409091L4.68182 3.36364H6.13636L10.4091 15H8.93182L5.45455 5.20455H5.36364L1.88636 15ZM2.43182 10.4545H8.38636V11.7045H2.43182V10.4545ZM15.8125 15H12.2216V3.36364H15.9716C17.1004 3.36364 18.0663 3.59659 18.8693 4.0625C19.6723 4.52462 20.2879 5.18939 20.7159 6.05682C21.1439 6.92045 21.358 7.95455 21.358 9.15909C21.358 10.3712 21.142 11.4148 20.7102 12.2898C20.2784 13.161 19.6496 13.8314 18.8239 14.3011C17.9981 14.767 16.9943 15 15.8125 15ZM13.6307 13.75H15.7216C16.6837 13.75 17.4811 13.5644 18.1136 13.1932C18.7462 12.822 19.2178 12.2936 19.5284 11.608C19.839 10.9223 19.9943 10.1061 19.9943 9.15909C19.9943 8.2197 19.8409 7.41098 19.5341 6.73295C19.2273 6.05114 18.7689 5.52841 18.1591 5.16477C17.5492 4.79735 16.7898 4.61364 15.8807 4.61364H13.6307V13.75ZM23.652 3.36364L27.1065 13.1591H27.2429L30.6974 3.36364H32.1747L27.902 15H26.4474L22.1747 3.36364H23.652Z" fill="white"/>
<path d="M74.4091 15V3.36364H75.8182V13.75H81.2273V15H74.4091ZM87.3409 2.81818L83.5909 16.75H82.3636L86.1136 2.81818H87.3409ZM98.3395 3.36364V15H96.9759L90.6349 5.86364H90.5213V15H89.1122V3.36364H90.4759L96.8395 12.5227H96.9531V3.36364H98.3395ZM101.159 15V3.36364H108.182V4.61364H102.568V8.54545H107.818V9.79545H102.568V13.75H108.273V15H101.159Z" fill="white"/>
<rect x="38" y="9" width="30" height="1" fill="white"/>
<path d="M117.358 6.74716V4.12642H118.686C118.793 4.12642 118.909 4.1572 119.034 4.21875C119.16 4.27794 119.266 4.37027 119.354 4.49574C119.444 4.61884 119.489 4.77509 119.489 4.96449C119.489 5.15625 119.442 5.3196 119.35 5.45455C119.258 5.58712 119.145 5.68774 119.013 5.75639C118.883 5.82505 118.759 5.85938 118.643 5.85938H117.685V5.43324H118.466C118.544 5.43324 118.628 5.39418 118.718 5.31605C118.81 5.23793 118.857 5.12074 118.857 4.96449C118.857 4.8035 118.81 4.6946 118.718 4.63778C118.628 4.58097 118.549 4.55256 118.48 4.55256H117.933V6.74716H117.358ZM118.942 5.51136L119.595 6.74716H118.963L118.324 5.51136H118.942ZM118.352 8.30966C117.959 8.30966 117.591 8.23627 117.248 8.08949C116.905 7.94271 116.603 7.73911 116.342 7.47869C116.082 7.21828 115.878 6.91643 115.732 6.57315C115.585 6.22988 115.511 5.86174 115.511 5.46875C115.511 5.07576 115.585 4.70762 115.732 4.36435C115.878 4.02107 116.082 3.71922 116.342 3.45881C116.603 3.19839 116.905 2.99479 117.248 2.84801C117.591 2.70123 117.959 2.62784 118.352 2.62784C118.745 2.62784 119.113 2.70123 119.457 2.84801C119.8 2.99479 120.102 3.19839 120.362 3.45881C120.623 3.71922 120.826 4.02107 120.973 4.36435C121.12 4.70762 121.193 5.07576 121.193 5.46875C121.193 5.86174 121.12 6.22988 120.973 6.57315C120.826 6.91643 120.623 7.21828 120.362 7.47869C120.102 7.73911 119.8 7.94271 119.457 8.08949C119.113 8.23627 118.745 8.30966 118.352 8.30966ZM118.352 7.62784C118.75 7.62784 119.112 7.53078 119.439 7.33665C119.766 7.14252 120.026 6.8821 120.22 6.5554C120.414 6.22869 120.511 5.86648 120.511 5.46875C120.511 5.07102 120.414 4.70881 120.22 4.3821C120.026 4.0554 119.766 3.79498 119.439 3.60085C119.112 3.40672 118.75 3.30966 118.352 3.30966C117.955 3.30966 117.592 3.40672 117.266 3.60085C116.939 3.79498 116.679 4.0554 116.484 4.3821C116.29 4.70881 116.193 5.07102 116.193 5.46875C116.193 5.86648 116.29 6.22869 116.484 6.5554C116.679 6.8821 116.939 7.14252 117.266 7.33665C117.592 7.53078 117.955 7.62784 118.352 7.62784Z" fill="white"/>
</svg>
