<svg width="424" height="124" viewBox="0 0 424 124" fill="none" xmlns="http://www.w3.org/2000/svg">
<path d="M44.9185 123.53H0L22.4621 82.3525H67.3805L44.9185 123.53Z" fill="#ED1B23"/>
<path d="M93.5825 123.531H142.249L117.92 82.3536H69.2536L93.5825 123.531ZM93.5825 41.1772L69.2536 0L44.9219 41.1772L69.2536 82.3513L93.5825 41.1772Z" fill="#ED1B23"/>
<path d="M161.531 106.285H180.523V99.4928H161.531V91.1363H182.897V84.3402H153.483V123.529H183.459V116.736H161.531V106.285ZM160.977 48.6802L169.413 77.8065H177.143L185.582 48.6802V77.8065H193.079V38.624H181.598L173.282 66.1276L164.964 38.624H153.48V77.8065H160.977L160.977 48.6802ZM343.855 38.6243H335.851V77.807H343.855V38.6243ZM350.379 84.3392H342.378V123.531H350.379V84.3392ZM423.003 38.6243H415.002V77.807H423.003V38.6243ZM204.272 38.6243H196.268V77.807H204.272V38.6243ZM403.818 53.9091H387.913V38.6264H380.039V77.8059H387.913V60.7021H403.819V77.8059H411.693V38.6264H403.818V53.9091ZM216.106 77.807H224.281V45.4118H233.987V38.6247H206.4V45.4118H216.106L216.106 77.807ZM289.101 123.53H297.264V91.1372H306.973V84.3382H279.39V91.1372H289.101L289.101 123.53ZM283.635 78.8977C293.827 78.8977 299.483 74.3228 299.483 65.5754V38.6254H291.482V66.289C291.482 69.6559 288.606 72.4719 283.635 72.4719C277.618 72.4719 275.847 69.1495 275.847 66.289V38.6256H267.979V65.5754C267.979 74.9919 273.905 78.8977 283.635 78.8977ZM223.154 106.285H242.154V99.4928H223.154V91.1363H244.526V84.3402H215.109V123.529H245.085V116.736H223.154V106.285ZM320.238 44.8478C322.423 44.8478 324.867 46.8525 324.867 49.488C324.867 51.8362 323.159 54.4213 319.79 54.4213H310.262V44.8478H320.238ZM319.646 71.8836H310.262V60.5215H319.553C322.898 60.5215 325.726 62.4166 325.726 66.2159C325.726 69.4317 323.159 71.8836 319.646 71.8836ZM310.571 77.8059H322.039C329.511 77.8059 333.969 73.3967 333.969 67.2285C333.969 62.2418 330.301 57.9629 326.308 56.9799C329.799 56.1034 332.603 52.5884 332.603 48.2621C332.603 42.4848 328.274 38.6264 320.223 38.6264H302.309V77.8059H302.348H310.571ZM316.985 101.744V91.0804H326.673C329.942 91.0804 332.122 93.3427 332.122 96.4372C332.122 98.6137 330.185 101.744 326.91 101.744H316.985ZM332.932 104.717C336.34 103.704 339.999 100.69 339.999 95.2497C339.999 88.282 335.214 84.2845 327.072 84.2845H308.934V123.473H316.985V108.03H323.815C327.949 108.03 330.195 110.145 330.873 112.937C331.614 116.017 331.425 120.606 332.224 123.473H340.312C339.525 120.473 339.063 116.393 338.889 113.171C338.597 107.867 335.769 105.753 332.932 104.717ZM194.087 84.3395H186.041V123.531H212.814V116.735H194.087V84.3395ZM247.419 61.2477C253.867 62.358 257.533 63.5306 257.533 67.3268C257.533 69.897 254.951 72.3342 249.604 72.3342C244.254 72.3342 241.514 69.3346 241.514 65.7751H233.801C233.801 72.589 238.277 78.8192 249.953 78.8192C261.066 78.8192 265.885 73.0183 265.885 66.3941C265.885 60.22 261.781 56.3024 254.441 54.8809C247.392 53.5159 242.552 53.2198 242.552 48.8134C242.552 45.7871 245.359 43.9985 249.67 43.9985C254.26 43.9985 256.893 46.2224 256.893 49.9802H264.666C264.666 43.7972 259.916 37.4336 249.352 37.4336C242.066 37.4336 234.507 41.5734 234.507 49.3168C234.507 55.8256 239.352 59.8558 247.419 61.2475M359.423 61.2477C365.866 62.358 369.528 63.5306 369.528 67.3268C369.528 69.897 366.956 72.3342 361.606 72.3342C356.259 72.3342 353.509 69.3346 353.509 65.7751H345.803C345.803 72.589 350.276 78.8192 361.948 78.8192C373.062 78.8192 377.883 73.0183 377.883 66.3941C377.883 60.22 373.782 56.3024 366.445 54.8809C359.39 53.5159 354.557 53.2198 354.557 48.8134C354.557 45.7871 357.358 43.9985 361.675 43.9985C366.253 43.9985 368.892 46.2224 368.892 49.9802H376.667C376.667 43.7972 371.915 37.4336 361.354 37.4336C354.062 37.4336 346.502 41.5734 346.502 49.3168C346.502 55.8256 351.357 59.8558 359.423 61.2475" fill="#221E1F"/>
<path d="M262.214 116.602C255.61 116.602 251.757 110.318 251.757 102.834C251.757 95.3471 255.475 89.0536 262.214 89.0536C267.225 89.0536 269.798 92.0859 270.913 95.7876H279.415C278.022 88.0806 271.816 82.3525 261.981 82.3525C249.582 82.3525 243.312 91.571 243.312 102.944C243.312 114.317 249.84 123.53 261.981 123.53C271.7 123.53 278.261 118.042 279.464 109.63H270.913C269.798 113.588 267.136 116.602 262.214 116.602M372.053 116.602C365.453 116.602 361.599 110.318 361.599 102.834C361.599 95.3471 365.312 89.0536 372.053 89.0536C377.07 89.0536 379.643 92.0859 380.752 95.7876H389.255C387.858 88.0806 381.656 82.3525 371.817 82.3525C359.415 82.3525 353.149 91.571 353.149 102.944C353.149 114.317 359.676 123.53 371.817 123.53C381.539 123.53 388.097 118.042 389.304 109.63H380.752C379.643 113.588 376.969 116.602 372.053 116.602Z" fill="#221E1F"/>
</svg>
