<svg width="197" height="108" viewBox="0 0 197 108" fill="none" xmlns="http://www.w3.org/2000/svg">
<path d="M0 107.356H4.41488V98.5909C4.41488 97.0277 4.41488 95.1038 5.21449 93.9755C6.01009 92.7491 7.43897 92.3503 8.23657 92.3503C11.9561 92.3503 11.9561 96.7351 11.9561 98.2582V107.356H16.3689V97.3965C16.3689 95.9656 16.3689 92.8814 14.6775 90.8573C13.1525 88.9936 10.7256 88.2921 9.13437 88.2921C6.34276 88.2921 4.81568 89.8272 4.08622 90.5246V88.9254H0V107.356Z" fill="#E21836"/>
<path fill-rule="evenodd" clip-rule="evenodd" d="M36.4465 100.117C36.6129 99.3872 36.7015 98.6416 36.7111 97.8928C36.7111 93.2495 33.0236 88.1934 27.1799 88.1934C21.5004 88.1934 17.4844 92.9809 17.4844 98.1914C17.4844 103.568 21.7349 107.955 27.214 107.955C31.5306 107.955 35.0497 104.869 36.1118 101.548H31.4625C30.6328 103.075 29.1739 103.903 27.214 103.903C24.0596 103.903 22.3321 101.314 22.1317 100.115L36.4465 100.117ZM21.9995 96.5642C22.8291 93.1434 25.5867 92.2475 27.214 92.2475C29.4064 92.2475 31.695 93.6083 32.194 96.5642H21.9995Z" fill="#E21836"/>
<path d="M42.3817 107.356H45.0991L48.5861 95.4044H48.6523L52.1092 107.356H54.8307L61.5703 88.9254H56.8568L53.4659 100.184H53.4018L50.4098 88.9254H46.8947L43.8726 100.184H43.8065L40.4538 88.9254H35.7383L42.3817 107.356Z" fill="#E21836"/>
<path fill-rule="evenodd" clip-rule="evenodd" d="M70.1172 107.356H74.1653V105.131C75.2575 106.362 76.8247 107.955 80.3778 107.955C87.1154 107.955 89.5403 101.747 89.5403 98.0552C89.5403 93.1814 85.8889 88.2936 80.2776 88.2936C78.2175 88.2936 76.0571 89.0611 74.5301 90.5902V82.7844H70.1172V107.356ZM74.2635 97.8949C74.2635 95.2055 76.3557 92.3497 79.7426 92.3497C82.5342 92.3497 85.1254 94.5041 85.1254 98.0953C85.1254 101.676 82.7005 103.905 79.8107 103.905C77.2215 103.905 74.2635 101.979 74.2635 97.8928M110.156 88.9248H106.102V91.2555H106.035C105.901 90.9869 103.675 88.2915 99.9272 88.2915C94.8149 88.2915 90.6946 92.3778 90.6946 98.0271C90.6946 104.167 94.9131 107.955 99.6626 107.955C101.983 107.955 104.709 106.723 106.102 105.071V107.356H110.156V88.9248ZM105.973 98.0953C105.973 101.514 103.645 103.903 100.588 103.903C97.4362 103.903 95.1095 101.346 95.1095 98.2255C95.1095 95.47 96.9692 92.3497 100.588 92.3497C103.214 92.3497 105.973 94.2736 105.973 98.0953Z" fill="#E21836"/>
<path d="M116.915 82.785H112.5V107.356H116.915V82.785Z" fill="#E21836"/>
<path fill-rule="evenodd" clip-rule="evenodd" d="M137.697 88.9249H133.649V91.2555H133.579C133.445 90.9869 131.218 88.2915 127.471 88.2915C122.353 88.2915 118.238 92.3778 118.238 98.0271C118.238 104.167 122.457 107.955 127.204 107.955C129.529 107.955 132.248 106.723 133.647 105.071V107.356H137.697V88.9249ZM133.513 98.0953C133.513 101.514 131.19 103.903 128.134 103.903C124.978 103.903 122.655 101.346 122.655 98.2255C122.655 95.47 124.515 92.3497 128.134 92.3497C130.759 92.3497 133.513 94.2736 133.513 98.0953Z" fill="#E21836"/>
<path d="M140.047 107.356H144.46V98.5903C144.46 97.0271 144.46 95.1032 145.261 93.9749C146.055 92.7485 147.488 92.3497 148.281 92.3497C151.999 92.3497 151.999 96.7345 151.999 98.2576V107.356H156.418V97.3959C156.418 95.965 156.418 92.8808 154.72 90.8567C153.193 88.993 150.772 88.2915 149.177 88.2915C146.386 88.2915 144.863 89.8266 144.129 90.524V88.9249H140.047V107.356ZM172.107 101.346C170.945 103.206 169.486 103.903 168.025 103.903C164.7 103.903 162.478 101.28 162.478 98.1254C162.478 94.3398 165.135 92.3478 167.823 92.3478C170.548 92.3478 171.578 94.1073 172.107 95.0352H177.091C175.198 89.3557 170.145 88.2915 167.823 88.2915C162.743 88.2915 158.063 92.4158 158.063 98.0552C158.063 104.167 163.137 107.955 167.859 107.955C172.175 107.955 175.594 105.462 177.091 101.346H172.107Z" fill="#E21836"/>
<path fill-rule="evenodd" clip-rule="evenodd" d="M196.738 100.117C196.869 99.5221 197.001 98.7546 197.001 97.8928C197.001 93.2495 193.318 88.1934 187.474 88.1934C181.794 88.1934 177.776 92.9809 177.776 98.1914C177.776 103.568 182.027 107.955 187.506 107.955C191.821 107.955 195.344 104.869 196.404 101.548H191.756C190.925 103.075 189.468 103.903 187.508 103.903C184.349 103.903 182.624 101.314 182.43 100.115L196.738 100.117ZM182.293 96.5642C183.125 93.1434 185.881 92.2475 187.506 92.2475C189.7 92.2475 191.989 93.6083 192.486 96.5642H182.293ZM75.1598 46.2651L69.2579 56.4576L36.5922 54.6198L39.8608 48.9424L75.1598 46.2651ZM98.7753 13.7876L101.735 25.0363L55.382 21.9901L58.6506 16.3148L98.7753 13.7876ZM68.0455 -0.000137329L95.1801 0.0199203L97.2262 7.71142L64.7809 5.67534L68.0455 -0.000137329ZM65.6607 62.7962L60.9512 70.8965L27.1953 70.9326L30.4639 65.2612L65.6607 62.7962ZM124.922 40.9423L116.751 55.1047H124.533C128.14 55.1047 134.599 53.3052 136.587 48.1709C138.431 43.4013 135.044 40.9362 132.682 40.9362L124.922 40.9423ZM132.714 27.3951L139.501 27.3549C144.018 27.3289 148.73 25.2628 150.453 21.0703C152.043 17.1825 149.906 13.8678 147.074 13.8798L140.509 13.8719L132.714 27.3951ZM101.992 25.0363L108.846 13.1464L132.04 11.6573L132.85 10.2145L111.393 8.71343L116.411 -0.000137329H156.203C168.439 -0.000137329 177.492 4.37276 173.973 17.2386C172.914 21.1365 167.94 30.9482 153.353 35.0584C156.449 35.4272 164.161 38.846 162.832 47.7039C160.471 63.4095 140.135 70.8865 128.824 70.8905L81.8433 70.9125L79.5286 61.8243L104.134 60.0888L104.97 58.65L78.2821 57.0267L75.4063 46.251L113.383 44.0345L114.206 42.6077L45.9831 38.303L49.2517 32.6315L122.687 27.8619L123.519 26.433L101.99 25.0363" fill="#E21836"/>
</svg>
