<svg width="196" height="182" viewBox="0 0 196 182" fill="none" xmlns="http://www.w3.org/2000/svg">
<path fill-rule="evenodd" clip-rule="evenodd" d="M97.9977 181.458C90.9885 181.458 87.3851 176.888 87.3851 176.888C81.6237 176.637 36.5978 176.763 36.5978 176.763L32.2153 139.762C32.2153 139.762 4.48274 120.217 2.22971 117.961C-11.082 57.569 37.0334 0 97.9993 0C158.967 0 207.082 57.5705 193.77 117.961C191.516 120.215 163.785 139.762 163.785 139.762L159.399 176.763C159.399 176.763 114.376 176.637 108.615 176.888C108.615 176.888 105.012 181.458 97.9977 181.458Z" fill="#ED1C24"/>
<path fill-rule="evenodd" clip-rule="evenodd" d="M98.0672 125.188L93.8129 18.3839C88.6829 17.3365 75.5927 18.5934 68.5789 23.8289L88.9949 125.607L61.1447 28.0154C54.467 27.9341 40.994 39.2233 39.9919 42.5705L80.6202 129.165L34.9659 50.0047C30.4643 51.6805 20.6218 69.7952 22.1922 71.9005L73.0805 134.193L20.7258 81C20.7258 81 13.92 91.367 18.3583 108.926L47.931 130.28L51.6338 159.457H87.8902C87.8902 159.457 93.8219 165.081 98.0311 165.081C102.239 165.081 108.17 159.458 108.17 159.458H144.428L148.131 130.282L177.702 108.926C182.142 91.367 175.336 81 175.336 81L122.982 134.193L173.87 71.902C175.44 69.7967 165.596 51.682 161.095 50.0062L115.442 129.168L156.069 42.5735C155.068 39.2278 141.594 27.9371 134.917 28.0185L107.064 125.607L127.485 23.8289C120.469 18.5934 107.381 17.3365 102.249 18.3839L98.0672 125.188Z" fill="#FFD500"/>
</svg>
