<svg viewBox="0 0 208 93" fill="none" xmlns="http://www.w3.org/2000/svg">
<path d="M88.8037 74.3116H82.4632C82.2398 74.3116 82.0794 74.0508 82.0794 73.8019C82.0794 73.7135 85.4532 62.4612 85.4532 62.4612C85.5735 62.0404 85.5849 62.0281 85.6308 62.0281H85.6365C85.6876 62.0281 85.6938 62.0404 85.8137 62.4612C85.8137 62.4612 89.1875 73.7135 89.1875 73.8019C89.1875 74.0508 89.0152 74.3116 88.8037 74.3116ZM97.3555 48.5662C97.324 48.455 97.2605 48.3563 97.1736 48.2833C97.0866 48.2103 96.9802 48.1663 96.8685 48.1573H73.5848C73.474 48.1665 73.3684 48.2097 73.2816 48.2816C73.1948 48.3534 73.1308 48.4505 73.0979 48.5603C73.0979 48.5603 60.2275 92.514 60.2275 92.5975C60.2275 92.8163 60.3936 92.9941 60.6113 92.9941H76.002C76.0629 92.9678 76.1167 92.9266 76.1586 92.8739C76.2005 92.8212 76.2294 92.7587 76.2426 92.6918L78.0353 86.7669C78.0628 86.6935 78.1106 86.6301 78.1728 86.5847C78.2349 86.5393 78.3087 86.5139 78.3847 86.5116L92.5842 86.5002C92.7385 86.512 92.8764 86.6246 92.9337 86.7669L94.7665 92.6918C94.7951 92.8286 94.8868 92.9526 95.0071 93L110.151 92.9941C110.363 92.9941 110.541 92.8281 110.541 92.6089C110.541 92.5318 97.3555 48.5662 97.3555 48.5662ZM141.231 66.5121L131.774 66.518C131.774 66.518 131.522 66.4409 131.522 66.1446L131.516 61.2089C131.516 60.9126 131.768 60.8356 131.768 60.8356H140.44C141.448 60.8356 143.487 61.3571 143.487 63.7686C143.487 66.1802 141.231 66.5121 141.231 66.5121ZM186.572 62.6905H208V48.1555H180.449C177.872 48.1555 174.246 49.5304 172.167 51.1241C170.088 52.7179 167.08 56.3502 167.08 61.3571C167.08 66.3639 170.019 70.257 170.019 70.257C171.525 72.1886 175.317 76.2121 175.317 76.2121C175.403 76.3069 175.455 76.4309 175.455 76.5736C175.455 76.8754 175.22 77.1184 174.928 77.1184H153.706C151.123 77.1065 150.945 76.0462 150.945 75.8921C150.945 75.6195 151.266 75.4476 151.266 75.4476C152.234 74.9676 154.21 73.3734 154.21 73.3734C158.403 69.9963 158.907 65.3628 158.907 62.8801C158.907 60.3911 158.546 55.9887 154.244 52.1316C149.943 48.274 144.496 48.1674 144.496 48.1674H114.212V92.7379C114.212 92.8796 114.338 92.9922 114.476 92.9922H131.333V80.49C131.333 80.2712 131.659 80.49 131.659 80.49L140.44 89.6152C143.562 92.8797 148.723 92.9922 148.723 92.9922L181.921 92.9863C187.586 92.9863 190.736 89.7989 191.601 88.9099C192.46 88.015 195.33 84.6794 195.33 79.1511C195.33 73.6287 192.89 70.8023 191.847 69.5049C190.92 68.3433 187.219 64.2901 186.446 63.4486C186.399 63.4092 186.362 63.3595 186.336 63.3032C186.31 63.2469 186.297 63.1854 186.297 63.1231C186.297 62.9271 186.406 62.7443 186.572 62.6905ZM52.5341 92.9913C52.6487 92.9913 52.7289 92.9084 52.7633 92.778C52.7633 92.778 65.8056 48.4628 65.8056 48.4208C65.8056 48.3023 65.7368 48.1724 65.628 48.1605H49.5498C49.4696 48.1605 49.4181 48.2257 49.4009 48.3146C49.4009 48.3205 46.0729 59.839 46.0729 59.8449C46.05 59.9398 46.0041 59.999 45.9239 59.999C45.8437 59.999 45.775 59.9161 45.7635 59.8449L42.2813 48.3087C42.2698 48.2312 42.2125 48.1605 42.1323 48.1605L24.3761 48.1546C24.3503 48.1619 24.3265 48.1754 24.3066 48.1939C24.2867 48.2124 24.2713 48.2355 24.2615 48.2613L21.1398 59.839C21.1226 59.9398 21.071 59.999 20.9851 59.999C20.9487 59.9983 20.9137 59.9842 20.8864 59.9592C20.8591 59.9343 20.8413 59.9 20.8361 59.8627L17.5253 48.2968C17.5213 48.2615 17.5063 48.2285 17.4825 48.2028C17.4587 48.1771 17.4275 48.1602 17.3936 48.1546H0.256034C0.188553 48.1555 0.124178 48.1841 0.0769551 48.2339C0.0297322 48.2838 0.00349427 48.351 0.0039661 48.4208C0.0039661 48.4445 0.00969492 48.4919 0.00969492 48.4919L13.2468 92.778C13.2812 92.9084 13.3614 92.9913 13.4759 92.9913L27.7098 92.9973C27.7953 92.9854 27.8817 92.8847 27.9042 92.778C27.9099 92.778 32.8587 76.2996 32.8587 76.2996C32.8874 76.1989 32.9275 76.1401 33.0077 76.1401C33.0936 76.1401 33.1399 76.2107 33.1623 76.2937L37.9908 92.8491C38.0049 92.8909 38.0313 92.927 38.0662 92.9525C38.1011 92.978 38.1429 92.9916 38.1856 92.9913H52.5341ZM40.1519 0.00182348C37.5687 0.00182348 33.9489 1.37627 31.8698 2.97046C29.7898 4.56418 26.7835 8.19656 26.7835 13.2034C26.7835 18.2102 29.7215 22.1034 29.7215 22.1034C31.2282 24.0349 35.0198 28.0876 35.0198 28.0876C35.1057 28.1824 35.1573 28.3069 35.1573 28.4432C35.1573 28.7454 34.9224 28.9943 34.6307 28.9943H0V44.8386H41.6242C47.2834 44.8386 50.4391 41.6507 51.3042 40.7562C52.1635 39.8673 55.0275 36.5312 55.0275 31.0029C55.0275 25.4805 52.5932 22.6244 51.5505 21.327C50.6224 20.1655 46.9225 16.1365 46.1491 15.3009C46.1028 15.2598 46.0655 15.2089 46.0398 15.1517C46.0141 15.0944 46.0006 15.0321 46.0002 14.969C46.0002 14.7734 46.109 14.5956 46.2752 14.5364H66.3225V44.8386H81.7361V14.6134H100.449V0.00182348H40.1519ZM174.588 18.3588L165.132 18.3648C165.132 18.3648 164.88 18.2877 164.88 17.9914L164.874 13.0557C164.874 12.7594 165.126 12.6823 165.126 12.6823H173.798C174.806 12.6823 176.845 13.2039 176.845 15.6154C176.845 18.027 174.588 18.3588 174.588 18.3588ZM187.064 28.9651C184.486 28.9533 184.303 27.8929 184.303 27.7388C184.303 27.4662 184.623 27.2944 184.623 27.2944C185.592 26.8143 187.568 25.2202 187.568 25.2202C191.761 21.8431 192.265 17.2096 192.265 14.7269C192.265 12.2379 191.903 7.83551 187.602 3.97839C183.3 0.120806 177.853 0.00227936 177.853 0.00227936H147.57V44.5842C147.57 44.7264 147.696 44.8395 147.834 44.8395H164.691V32.3422C164.691 32.117 165.017 32.3422 165.017 32.3422L173.798 41.4615C176.919 44.726 182.08 44.8386 182.08 44.8386H207.999V28.9661L187.064 28.9651ZM122.983 26.1542H116.642C116.407 26.1542 116.259 25.8935 116.259 25.6446C116.259 25.5498 119.632 14.3039 119.632 14.3039C119.752 13.8831 119.786 13.8708 119.81 13.8708H119.815C119.838 13.8708 119.873 13.8831 119.993 14.3039C119.993 14.3039 123.366 25.5502 123.366 25.6446C123.366 25.8935 123.212 26.1542 122.983 26.1542ZM131.517 0.397064C131.487 0.286208 131.424 0.188107 131.336 0.11679C131.249 0.0454734 131.142 0.00459453 131.03 0L107.747 0C107.518 0.0118527 107.323 0.171863 107.26 0.391137C107.26 0.391137 94.4012 44.3567 94.4012 44.4397C94.4012 44.659 94.573 44.8368 94.7845 44.8368H110.176C110.302 44.7957 110.393 44.6708 110.422 44.5345L112.215 38.6036C112.244 38.5317 112.292 38.4699 112.354 38.4258C112.416 38.3816 112.489 38.3569 112.564 38.3547H126.757C126.833 38.36 126.907 38.3866 126.969 38.4314C127.032 38.4763 127.081 38.5378 127.113 38.6096L128.946 44.5345C128.974 44.6713 129.066 44.7953 129.186 44.8427L144.33 44.8368C144.381 44.8379 144.431 44.8286 144.477 44.8095C144.524 44.7903 144.566 44.7616 144.602 44.7251C144.638 44.6887 144.666 44.6451 144.686 44.5971C144.705 44.5491 144.715 44.4976 144.714 44.4456C144.714 44.3745 131.517 0.397064 131.517 0.397064Z" fill="black"/>
</svg>
