<svg xmlns="http://www.w3.org/2000/svg" xmlns:xlink="http://www.w3.org/1999/xlink"><symbol id="icon-arrow-corner-light" viewBox="0 0 18 18">
<path d="M1 17H17M17 17V1M17 17L1 1" stroke="white"/>
</symbol><symbol id="icon-arrow-corner" viewBox="0 0 38 38">
<path d="M1 37H37M37 37V1M37 37L1 1" stroke="#2B2B2B" stroke-width="2"/>
</symbol><symbol id="icon-back" viewBox="0 0 16 16">
<path fill-rule="evenodd" clip-rule="evenodd" d="M1.85796 7.46667L8.46393 0.816L7.89874 0L9.53674e-07 8.0224L7.89874 16L8.46481 15.1851L1.85708 8.53333H16V7.46667L1.85796 7.46667Z" fill="black"/>
</symbol><symbol id="icon-close" viewBox="0 0 17 17">
<path d="M1 1L8.5 8.5M16 16L8.5 8.5M8.5 8.5L1.00014 16M8.5 8.5L15.9999 1" stroke="#010302"/>
</symbol><symbol id="icon-modal-close" viewBox="0 0 15 15">
<path d="M1 1L7.5 7.5M14 14L7.5 7.5M7.5 7.5L1.00012 14M7.5 7.5L13.9999 1" stroke="#F9F9F9"/>
</symbol><symbol id="icon-open-dark" viewBox="0 0 15 15">
<path fill-rule="evenodd" clip-rule="evenodd" d="M15 14H0V13H15V14ZM15 8H0V7H15V8ZM15 2H0V1H15V2Z" fill="white"/>
</symbol><symbol id="icon-open" viewBox="0 0 15 15">
<path fill-rule="evenodd" clip-rule="evenodd" d="M15 14H0V13H15V14ZM15 8H0V7H15V8ZM15 2H0V1H15V2Z" fill="#010302"/>
</symbol><symbol id="icon-play" viewBox="0 0 100 100">
<rect width="100" height="100" rx="50" fill="white"/>
<path d="M46 59L62 50.5L46 42V59Z" fill="#DE054C"/>
</symbol></svg>